PathFileType	4	(X/Y/Z)	7_coords_data.trc
DataRate	CameraRate	NumFrames	NumMarkers	Units	OrigDataRate	OrigDataStartFrame	OrigNumFrames
30.0	30.0	7	21	m	30.0	10	68
Frame#	Time	THUMB_TIP	THUMB_IP	THUMB_MCP	THUMB_CMC	INDEX_TIP	INDEX_DIP	INDEX_PIP	INDEX_MCP	MIDDLE_TIP	MIDDLE_DIP	MIDDLE_PIP	MIDDLE_MCP	RING_TIP	RING_DIP	RING_PIP	RING_MCP	PINKY_TIP	PINKY_DIP	PINKY_PIP	PINKY_MCP	WRIST
X1	Y1	Z1	X2	Y2	Z2	X3	Y3	Z3	X4	Y4	Z4	X5	Y5	Z5	X6	Y6	Z6	X7	Y7	Z7	X8	Y8	Z8	X9	Y9	Z9	X10	Y10	Z10	X11	Y11	Z11	X12	Y12	Z12	X13	Y13	Z13	X14	Y14	Z14	X15	Y15	Z15	X16	Y16	Z16	X17	Y17	Z17	X18	Y18	Z18	X19	Y19	Z19	X20	Y20	Z20	X21	Y21	Z21
9	0.3	-0.03149880027770996	-0.07765689849853516	1.0216099853515626	-0.04846620178222656	-0.06632440185546876	1.0135499877929688	-0.06327500152587891	-0.04596189880371094	1.003780029296875	-0.06450740051269531	-0.015794199943542482	1.0013400268554689	-0.02790880012512207	-0.13290199279785156	0.9799879760742187	-0.03330220031738281	-0.11324700164794922	0.9756320190429687	-0.03903499984741211	-0.09253780364990234	0.9724869995117188	-0.043847999572753905	-0.053587501525878906	0.9654920043945312	-0.041729698181152346	-0.05453120040893555	1.0023599853515626	-0.03252040100097656	-0.07149490356445312	1.0026199951171875	-0.015429300308227539	-0.08168930053710938	0.98797998046875	-0.01887190055847168	-0.04673799896240234	0.9671129760742188	-0.03476190185546875	-0.04892269897460937	1.0166300048828125	-0.02132390022277832	-0.06162630081176758	1.0138200073242187	-0.001960729956626892	-0.0655395965576172	1.0020700073242188	-0.004233570098876953	-0.03499779891967773	0.9808709716796875	0.05013840103149414	-0.05967359924316406	0.9964000244140625	0.03458060073852539	-0.04940869903564453	0.9975570068359375	0.019663400650024414	-0.04074829864501953	0.9980809936523437	-0.002536159992218017	-0.027714799880981446	0.9991530151367187	-0.059308399200439454	0.022001800537109376	1.00152001953125
10	0.3333333333333333	-0.03204150009155273	-0.07754859924316407	1.02202001953125	-0.04909830093383789	-0.06563200378417969	1.014260009765625	-0.06386309814453126	-0.04533420181274414	1.0043300170898437	-0.06500849914550781	-0.015231300354003906	1.0019099731445313	-0.028556499481201172	-0.13239500427246093	0.9807310180664063	-0.03404499816894531	-0.11266400146484375	0.9765819702148437	-0.03972679901123047	-0.09195240020751953	0.973489990234375	-0.04431600189208985	-0.052974300384521486	0.9661209716796875	-0.042220500946044924	-0.05385179901123047	1.0031599731445313	-0.032916801452636715	-0.0708666000366211	1.0035	-0.01585599994659424	-0.0810958023071289	0.9887540283203125	-0.01939579963684082	-0.046140499114990234	0.967906005859375	-0.03449610137939453	-0.04838700103759765	1.0163099975585939	-0.02171419906616211	-0.0610885009765625	1.0143900146484375	-0.00236326003074646	-0.06497090148925781	1.00252001953125	-0.004731550216674805	-0.034453601837158204	0.981551025390625	0.049700599670410156	-0.05898590087890625	0.9969240112304687	0.03422060012817383	-0.04871250152587891	0.9980759887695313	0.01926650047302246	-0.04013740158081055	0.9987739868164063	-0.003006210088729858	-0.027184099197387696	0.9999299926757812	-0.059838001251220706	0.02257900047302246	1.002260009765625
11	0.36666666666666664	-0.032664901733398435	-0.07732710266113281	1.0228200073242188	-0.049000900268554685	-0.06510050201416015	1.0154600219726562	-0.06400279998779297	-0.04519029998779297	1.00527001953125	-0.06534639739990235	-0.01485550022125244	1.0026799926757812	-0.028579399108886717	-0.131947998046875	0.981458984375	-0.03421720123291016	-0.11208399963378907	0.9774310302734375	-0.040003898620605466	-0.09142839813232422	0.9744329833984375	-0.04462950134277344	-0.05257109832763672	0.966781005859375	-0.04250719833374023	-0.05339030075073242	1.00377001953125	-0.0331260986328125	-0.07043820190429688	1.0041300048828126	-0.016071699142456056	-0.08056809997558594	0.989718017578125	-0.019732400894165038	-0.04583219909667969	0.968530029296875	-0.034828800201416016	-0.04820980072021484	1.0173800048828125	-0.0218390998840332	-0.06034659957885742	1.014989990234375	-0.002688980102539062	-0.06434339904785157	1.003260009765625	-0.005088260173797607	-0.03384970092773437	0.9822579956054688	0.049507499694824215	-0.0580093994140625	0.9977730102539063	0.03394540023803711	-0.04786259841918945	0.9988560180664062	0.01894980049133301	-0.03937900161743164	0.9994600219726563	-0.003501689910888672	-0.02653019905090332	1.000739990234375	-0.06045719909667969	0.023055400848388672	1.0028599853515625
12	0.4	-0.03241809844970703	-0.07645919799804687	1.0236099853515626	-0.049511600494384765	-0.06480909729003906	1.015719970703125	-0.06454229736328125	-0.04451070022583008	1.0056699829101563	-0.065931396484375	-0.014454899787902832	1.0030499877929688	-0.028433399200439455	-0.13165899658203126	0.9810659790039062	-0.034078601837158204	-0.11194100189208984	0.9772750244140626	-0.04008380126953125	-0.09117250061035156	0.9746199951171876	-0.04495849990844727	-0.05224599838256836	0.9673350219726562	-0.04287509918212891	-0.05309749984741211	1.0045800170898438	-0.033453399658203126	-0.07005599975585937	1.0048499755859375	-0.01627149963378906	-0.08011399841308593	0.9900780029296875	-0.020146799087524415	-0.04532880020141602	0.9691170043945313	-0.03558649826049805	-0.04747299957275391	1.017969970703125	-0.022145700454711915	-0.06004410171508789	1.0150999755859376	-0.002908319950103759	-0.06379510116577149	1.00402001953125	-0.0054826498031616214	-0.033472198486328125	0.982676025390625	0.049311901092529295	-0.057215999603271485	0.9981729736328125	0.03370610046386719	-0.04722370147705078	0.9992670288085937	0.018694799423217775	-0.03881460189819336	0.9997529907226562	-0.003749860048294067	-0.02611370086669922	1.0010599975585937	-0.06090250015258789	0.023328399658203124	1.0035399780273437
13	0.43333333333333335	-0.032823699951171875	-0.07651429748535156	1.024030029296875	-0.04978260040283203	-0.0644197998046875	1.016530029296875	-0.0647051010131836	-0.04454980087280273	1.0058699951171874	-0.06638770294189453	-0.01418340015411377	1.0034500122070313	-0.028674999237060548	-0.13142100524902345	0.9808250122070312	-0.03436199951171875	-0.11163800048828125	0.977197021484375	-0.04038119888305664	-0.09085780334472657	0.974656005859375	-0.04535079956054688	-0.05184439849853516	0.9677009887695313	-0.04299520111083984	-0.05271049880981445	1.0046599731445311	-0.03381520080566406	-0.0698729019165039	1.0050800170898437	-0.01663330078125	-0.07983190155029297	0.990364990234375	-0.020596500396728515	-0.04490409851074219	0.9695360107421875	-0.03571649932861328	-0.04722560119628906	1.0183699951171874	-0.022421199798583983	-0.059919898986816406	1.0155399780273437	-0.0032694499492645257	-0.06340810012817383	1.0043300170898437	-0.005883580207824707	-0.033143199920654294	0.9830490112304687	0.04888710021972656	-0.05691360092163086	0.9982969970703125	0.03324169921875	-0.046921100616455075	0.9995560302734375	0.01818280029296875	-0.038547199249267576	1.0001500244140624	-0.004302350044250489	-0.025814100265502928	1.001469970703125	-0.061243900299072264	0.02352739906311035	1.0038200073242187
14	0.4666666666666667	-0.03322249984741211	-0.07611309814453125	1.0241199951171875	-0.05043840026855469	-0.06433940124511718	1.016489990234375	-0.06541850280761718	-0.04423580169677734	1.0061900024414063	-0.06667150115966797	-0.014255900382995606	1.0036900024414062	-0.02901059913635254	-0.13125	0.9811480102539063	-0.03480300140380859	-0.11140299987792969	0.9776019897460938	-0.04070970153808594	-0.0907676010131836	0.9749450073242187	-0.04574530029296875	-0.0517510986328125	0.968041015625	-0.043332801818847654	-0.05265060043334961	1.0050700073242187	-0.0342327995300293	-0.06967970275878907	1.0054500122070313	-0.017014799118041993	-0.07970559692382813	0.9906530151367188	-0.020926000595092774	-0.04488159942626953	0.969802001953125	-0.03606949996948242	-0.04728099822998047	1.0186599731445312	-0.02284269905090332	-0.059558799743652344	1.0161199951171875	-0.003660089969635009	-0.06319240188598632	1.0047100219726564	-0.006304100036621094	-0.03298540115356445	0.9833619995117188	0.048548000335693356	-0.05665250015258789	0.9985430297851563	0.03286439895629883	-0.046665000915527347	0.99972998046875	0.017799400329589845	-0.03837139892578125	1.0003900146484375	-0.004668580055236816	-0.0257283992767334	1.0018099975585937	-0.061756999969482425	0.023638399124145507	1.0043699951171876
15	0.5	-0.033484798431396484	-0.07653929901123047	1.024030029296875	-0.05017300033569336	-0.06469190216064453	1.0167999877929688	-0.06562519836425781	-0.044546798706054686	1.006469970703125	-0.06716829681396484	-0.014163999557495118	1.0040900268554687	-0.02945050048828125	-0.1311490020751953	0.981114990234375	-0.03514929962158203	-0.11144100189208984	0.9774959716796875	-0.04118280029296875	-0.09059980010986328	0.975010986328125	-0.04622710037231445	-0.05162070083618164	0.9682050170898437	-0.043849300384521485	-0.05253730010986328	1.0051799926757812	-0.03448659896850586	-0.06960440063476563	1.0053400268554689	-0.0173617000579834	-0.07962460327148438	0.9905040283203125	-0.02130120086669922	-0.04471689987182617	0.9698359985351562	-0.036447101593017575	-0.047436500549316404	1.0186699829101562	-0.023305700302124022	-0.059444698333740234	1.0163699951171874	-0.00392096996307373	-0.06324679946899414	1.0043300170898437	-0.006708469867706299	-0.0329833984375	0.9833270263671875	0.04827230072021484	-0.056444400787353514	0.9980709838867188	0.03255799865722656	-0.046455799102783205	0.9994520263671876	0.017504100799560548	-0.03831119918823242	1.0003200073242187	-0.004992080211639404	-0.025735700607299804	1.001780029296875	-0.06220330047607422	0.023622400283813478	1.0046900024414063
